<svg style="background-color:#ffffff00" xmlns="http://www.w3.org/2000/svg" width="36" height="108"><rect opacity=".012" width="36" height="108"/><path d="M15.626 93.091c.136 0 .27.051.369.151l1.782 2.007c.198.199.381.751.004.751h-.781v7.599c0 2.246-.762 3.352-1.549 3.399l.214.001.04.001h-3.373c-1.745 0-2.637-6.387-3.915-9.98l-.079-.215-.311.089c-.027.324-.028.62-.028.833v6.182c0 2.318-.804 3.091-2.437 3.091h-2.134c-1.636 0-2.429-.732-2.429-3.091v-7.364c0-.773.818-1.545 1.636-1.545h1.364v9.144c0 1.014.149 1.369.386 1.856h.251l-.038-.028c.244-.489.401-1.052.401-2.063v-6.34c0-2.318.948-3.069 1.625-3.069h.375l.008-.043c-.056-.013 3.039-.02 3.039-.02 1.649 0 2.506 6.95 3.826 10.542l.069-.18.021-.095c.024-.242.037-.508.037-.796v-7.909h-.542c-.275 0-.224-.452-.015-.647l1.803-2.112c.107-.1.245-.15.38-.15zm-12.332-3.091c1.266 0 2.293.802 2.293 1.791 0 .989-.764 1.791-2.833 1.791-1.616 0-1.754.796-1.754.796v-2.587c0-.989 1.027-1.791 2.294-1.791z" fill="#c4c4c4"/><path d="M5.449 84.504c.512 0 .717.408.717.664 0 .663-2.305 2.603-2.459 2.756-.153.102-.307.153-.461.153-.513 0-.666-.459-.666-.714 0-.613 2.1-2.45 2.305-2.603.153-.204.46-.256.563-.256zm-4.783-3.504h2.959c.435.025.666-.081.666.238 0 .217-.154.623-.461.711l-.179.051h-3.009c-.423-.077-.64.094-.64-.238 0-.344.217-.698.666-.762zm14.771-6.448c.512 0 .717.408.717.663 0 .562-.665.919-1.229 1.531l-1.127 1.174c-.154.102-.41.204-.563.204-.513 0-.666-.459-.666-.715 0-.612 2.048-2.399 2.356-2.654.102-.153.409-.204.512-.204zm-12.191 0c.461 0 2.663 2.296 2.715 2.347.103.103.205.409.205.511 0 .511-.462.715-.717.715-.615 0-2.408-2.092-2.664-2.347-.102-.154-.204-.409-.204-.562 0-.357.308-.663.666-.663zm6.471-2.552c.243 0 .116.153.232.472l.051.166v2.998c-.051.421-.422.651-.716.651-.244 0-.13-.153-.245-.472l-.039-.166v-3.011c.039-.422.41-.638.718-.638zm-2.717 6l3 10 2.5-2.5 3.5 3.5 2-2-3.5-3.5 2.5-2.5-10-3z" fill="#c4c4c4"/><path d="M15.049 67.597l-1.452 1.451c-.266.267-.7.267-.967 0l-3.629-3.627-3.629 3.627c-.266.267-.701.267-.967-.001l-1.453-1.45c-.266-.267-.266-.7 0-.968l3.629-3.629-3.628-3.628c-.266-.268-.266-.703 0-.968l1.452-1.452c.266-.268.701-.268.967 0l3.628 3.629 3.629-3.629c.267-.268.702-.268.966 0l1.452 1.45c.267.267.267.702.001.97l-3.628 3.628 3.628 3.629c.266.269.266.701 0 .968z" fill="#c4c4c4"/><path d="M6.893 49.547l-3.145-3.142c-.147-.147-.36-.206-.561-.153-.201.051-.36.205-.418.403l-1.993 5.134c-.061.206-.003.428.148.58.112.111.37.182.581.149l5.138-1.992c.2-.059.353-.218.405-.418.051-.201-.007-.414-.154-.561zm4.941-11.827l3.753 3.75-8.073 8.065-3.753-3.75 8.073-8.065zm0-1.612c-.207 0-.413.078-.57.235l-8.881 8.872c-.314.314-.314.826 0 1.139l4.56 4.557c.157.157.364.236.57.236.207 0 .413-.078.57-.236l8.881-8.872c.314-.315.314-.827 0-1.139l-4.561-4.557c-.157-.157-.363-.235-.57-.235zm-7.267 8.601l-1.243 1.242 4.067 4.064 1.243-1.242-4.067-4.064zm2.088-2.086l-.741.74 4.067 4.064.741-.74-4.067-4.064zm9.96 11.377h-13.154c-.391 0-.709.099-.709-.292s.317-.708.708-.708h13.154c.391 0 .708.317.708.708 0 .391-.317.292-.708.292z" fill="#c4c4c4"/><path d="M9.78 34.77c-.344 0-.642-.256-.686-.605-.048-.379.22-.726.6-.774 1.711-.217 2.745-.902 3.997-4.21 1.252-3.308 2.27-6.481 2.703-7.866l-8.888-1.77-2.648 7.335c-.129.36-.527.547-.886.416-.36-.13-.546-.527-.416-.886l2.85-7.895c.117-.323.453-.514.786-.443l10.224 2.036c.191.038.358.155.458.322.1.168.126.369.07.556-.013.042-1.278 4.245-2.959 8.686-1.305 3.447-2.644 4.781-5.118 5.094l-.088.005zm-.012-.014c-.844.076-1.835-.4-1.835-.4l-5.767-2.618s-2.727-.854-1.908-4.402l7.877 3.183s-.304 3.144 2.163 2.798c.439.448.26 1.298-.53 1.439z" fill="#c4c4c4"/><path d="M5.561 14.538l4.439 2.462v-1.375c3.816-.311 6.807-3.159 6.807-6.625 0-1.806-.621-3.441-1.937-4.64l-1.868 1.513c.906.798 1.273 1.905 1.273 3.127 0 2.225-1.859 4.064-4.275 4.363v-1.287l-4.439 2.462zm8.071-11.077l-4.632-2.462v1.375c-3.816.311-6.807 3.158-6.807 6.625 0 1.806.621 3.442 1.938 4.642l1.869-1.513c-.908-.798-1.277-1.905-1.277-3.128 0-2.225 1.86-4.066 4.276-4.366v1.29l4.632-2.462z" fill="#c4c4c4"/><path d="M33.626 93.091c.136 0 .27.051.369.151l1.782 2.007c.198.199.381.751.004.751h-.781v7.599c0 2.246-.762 3.352-1.549 3.399l.214.001.04.001h-3.373c-1.745 0-2.637-6.387-3.915-9.98l-.079-.215-.311.089c-.027.324-.029.62-.029.833v6.182c0 2.318-.804 3.091-2.437 3.091h-2.134c-1.636 0-2.429-.732-2.429-3.091v-7.364c0-.773.818-1.545 1.636-1.545h1.364v9.144c0 1.014.149 1.369.386 1.856h.251l-.038-.028c.244-.489.401-1.052.401-2.063v-6.34c0-2.318.948-3.069 1.625-3.069h.375l.056-.028c-.056-.013 3.039-.02 3.039-.02 1.649 0 2.457 6.935 3.778 10.528l.069-.18.021-.095c.024-.242.037-.508.037-.796v-7.909h-.542c-.275 0-.224-.452-.014-.647l1.802-2.112c.108-.1.245-.15.38-.15zm-12.332-3.091c1.266 0 2.293.802 2.293 1.791 0 .989-.764 1.791-2.833 1.791-1.616 0-1.754.796-1.754.796v-2.587c0-.989 1.027-1.791 2.294-1.791z" fill="#79cdff"/><path d="M23.449 84.504c.512 0 .717.408.717.664 0 .663-2.305 2.603-2.459 2.756-.153.102-.307.153-.461.153-.513 0-.666-.459-.666-.714 0-.613 2.1-2.45 2.305-2.603.153-.204.46-.256.563-.256zm-4.783-3.504h2.959c.435.025.666-.081.666.238 0 .217-.154.623-.461.711l-.179.051h-3.009c-.423-.077-.64.094-.64-.238 0-.344.217-.698.666-.762zm14.771-6.448c.512 0 .717.408.717.663 0 .562-.665.919-1.229 1.531l-1.127 1.174c-.154.102-.41.204-.563.204-.513 0-.666-.459-.666-.715 0-.612 2.049-2.399 2.356-2.654.102-.153.409-.204.512-.204zm-12.191 0c.461 0 2.663 2.296 2.714 2.347.103.103.205.409.205.511 0 .511-.462.715-.717.715-.615 0-2.408-2.092-2.664-2.347-.102-.154-.204-.409-.204-.562 0-.357.308-.663.666-.663zm6.471-2.552c.243 0 .116.153.232.472l.051.166v2.998c-.051.421-.422.651-.716.651-.244 0-.13-.153-.245-.472l-.039-.166v-3.011c.039-.422.41-.638.718-.638zm-2.717 6l3 10 2.5-2.5 3.5 3.5 2-2-3.5-3.5 2.5-2.5-10-3z" fill="#79cdff"/><path d="M33.049 67.597l-1.452 1.451c-.266.267-.7.267-.967 0l-3.629-3.627-3.629 3.627c-.266.267-.701.267-.967-.001l-1.453-1.45c-.266-.267-.266-.7 0-.968l3.629-3.629-3.628-3.628c-.266-.268-.266-.703 0-.968l1.452-1.452c.266-.268.701-.268.967 0l3.628 3.629 3.629-3.629c.267-.268.702-.268.966 0l1.452 1.45c.267.267.267.702.001.97l-3.628 3.628 3.628 3.629c.266.269.266.701 0 .968z" fill="#79cdff"/><path d="M24.893 49.547l-3.145-3.142c-.147-.147-.36-.206-.561-.153-.201.051-.36.205-.418.403l-1.993 5.134c-.061.206-.003.428.148.58.112.111.37.182.581.149l5.138-1.992c.2-.059.353-.218.405-.418.051-.201-.007-.414-.154-.561zm4.941-11.827l3.753 3.75-8.073 8.065-3.753-3.75 8.073-8.065zm0-1.612c-.206 0-.413.078-.57.235l-8.881 8.872c-.314.314-.314.826 0 1.139l4.561 4.557c.157.157.364.236.57.236.207 0 .413-.078.57-.236l8.881-8.872c.314-.315.314-.827 0-1.139l-4.561-4.557c-.157-.157-.363-.235-.57-.235zm-7.267 8.601l-1.243 1.242 4.067 4.064 1.243-1.242-4.067-4.064zm2.088-2.086l-.741.74 4.067 4.064.741-.74-4.067-4.064zm9.96 11.377h-13.154c-.391 0-.709.099-.709-.292s.317-.708.709-.708h13.154c.391 0 .709.317.709.708 0 .391-.317.292-.709.292z" fill="#79cdff"/><path d="M27.78 34.77c-.343 0-.642-.256-.686-.605-.048-.379.22-.726.6-.774 1.711-.217 2.745-.902 3.997-4.21 1.251-3.308 2.27-6.481 2.703-7.866l-8.888-1.77-2.648 7.335c-.129.36-.527.547-.886.416-.36-.13-.546-.527-.416-.886l2.85-7.895c.117-.323.453-.514.786-.443l10.224 2.036c.191.038.358.155.458.322.1.168.126.369.07.556-.013.042-1.278 4.245-2.959 8.686-1.305 3.447-2.644 4.781-5.118 5.094l-.088.005zm-.012-.014c-.844.076-1.835-.4-1.835-.4l-5.767-2.618s-2.727-.854-1.908-4.402l7.877 3.183s-.303 3.144 2.163 2.798c.439.448.26 1.298-.53 1.439z" fill="#79cdff"/><path d="M23.561 14.538l4.439 2.462v-1.375c3.816-.311 6.807-3.159 6.807-6.625 0-1.806-.621-3.441-1.937-4.64l-1.868 1.513c.906.798 1.273 1.905 1.273 3.127 0 2.225-1.859 4.064-4.275 4.363v-1.287l-4.439 2.462zm8.071-11.077l-4.632-2.462v1.375c-3.816.311-6.807 3.158-6.807 6.625 0 1.806.621 3.442 1.938 4.642l1.869-1.513c-.908-.798-1.277-1.905-1.277-3.128 0-2.225 1.86-4.066 4.276-4.366v1.29l4.632-2.462z" fill="#79cdff"/></svg>