<?xml version="1.0" standalone="no"?>
<!DOCTYPE svg PUBLIC "-//W3C//DTD SVG 1.1//EN" "http://www.w3.org/Graphics/SVG/1.1/DTD/svg11.dtd">
<svg id="" viewBox="0 0 966 1250" version="1.1"
	xmlns="http://www.w3.org/2000/svg" xmlns:xlink="http://www.w3.org/1999/xlink" xml:space="preserve"
	x="0px" y="0px" width="966px" height="1250px"
>
	<defs>
		<linearGradient id="gradient1" x1="187.5" y1="0.5" x2="187.5" y2="796.5" gradientUnits="userSpaceOnUse">
			<stop stop-color="#333333" stop-opacity="1" offset="0%"/>
			<stop stop-color="#333333" stop-opacity="1" offset="99.4444%"/>
		</linearGradient>
		<linearGradient id="gradient2" x1="291" y1="719" x2="-79" y2="1598" gradientUnits="userSpaceOnUse">
			<stop stop-color="#333333" stop-opacity="1" offset="0%"/>
			<stop stop-color="#666666" stop-opacity="1" offset="98.8889%"/>
		</linearGradient>
		<linearGradient id="gradient3" x1="482.85009765625" y1="48.493988037109375" x2="482.85009765625" y2="63.082000732421875" gradientUnits="userSpaceOnUse">
			<stop stop-color="#1e1e1e" stop-opacity="1" offset="0%"/>
			<stop stop-color="#303030" stop-opacity="1" offset="34.4444%"/>
			<stop stop-color="#303030" stop-opacity="1" offset="98.8889%"/>
		</linearGradient>
		<linearGradient id="gradient4" x1="508.881103515625" y1="1172.8397216796875" x2="452.881103515625" y2="1235.465576171875" gradientUnits="userSpaceOnUse">
			<stop stop-color="#333333" stop-opacity="1" offset="0%"/>
			<stop stop-color="#666666" stop-opacity="1" offset="98.8889%"/>
		</linearGradient>
		<linearGradient id="gradient5" x1="841" y1="390.5" x2="1780.33349609375" y2="555.4052124023438" gradientUnits="userSpaceOnUse">
			<stop stop-color="#ffffff" stop-opacity="1" offset="0%"/>
			<stop stop-color="#ffffff" stop-opacity="0" offset="98.3333%"/>
		</linearGradient>
	</defs>
	<g id="ipad">
		<rect y="0" x="0" width="966" height="1250" fill="url(#gradient1)" rx="42.0001" ry="42.0001"/>
		<rect y="3" x="3" width="960" height="1244" stroke="#5f6161" stroke-width="2" fill="url(#gradient2)" rx="39.9999" ry="39.9999"/>
		<g>
			<g opacity="0.502">
				<path id="Ellipse" d="M 475.556 56.788 C 475.556 52.7596 478.8215 49.494 482.85 49.494 C 486.8784 49.494 490.144 52.7596 490.144 56.788 C 490.144 60.8164 486.8784 64.082 482.85 64.082 C 478.8215 64.082 475.556 60.8164 475.556 56.788 Z" fill="#999999"/>
				<path id="Ellipse2" d="M 475.556 54.788 C 475.556 50.7596 478.8215 47.494 482.85 47.494 C 486.8784 47.494 490.144 50.7596 490.144 54.788 C 490.144 58.8164 486.8784 62.082 482.85 62.082 C 478.8215 62.082 475.556 58.8164 475.556 54.788 Z" fill="#000000"/>
			</g>
			<path id="Ellipse3" d="M 475.556 55.788 C 475.556 51.7596 478.8215 48.494 482.85 48.494 C 486.8784 48.494 490.144 51.7596 490.144 55.788 C 490.144 59.8164 486.8784 63.082 482.85 63.082 C 478.8215 63.082 475.556 59.8164 475.556 55.788 Z" fill="url(#gradient3)"/>
		</g>
		<rect opacity="0.502" y="111.5" x="98.5" width="769" height="1025" stroke="#5f5f5f" stroke-width="1" fill="#333333"/>
		<g>
			<path id="Ellipse4" d="M 455 1194 C 455 1178.5358 467.5358 1166 482.9999 1166 C 498.4642 1166 511 1178.5358 511 1194 C 511 1209.4642 498.4642 1222 482.9999 1222 C 467.5358 1222 455 1209.4642 455 1194 Z" stroke="#5f6161" stroke-width="2" fill="url(#gradient4)"/>
			<rect y="1184.1447" x="472.844" width="19.7584" height="19.7583" stroke="#666666" stroke-width="2" fill="none" rx="5" ry="5"/>
		</g>
	</g>
	<path id="Glow" opacity="0.102" d="M 448.1818 2.5 L 909.6899 2.5 C 951.5 2.5 963 25.75 963 56.8101 L 963 1032.5758 C 963 1064.2278 448.1818 349.6364 448.1818 2.5 Z" fill="url(#gradient5)"/>
	<g id="TopBar">
		<rect y="112" x="99" width="768" height="20" fill="#1f1f1f"/>
		<g opacity="0.2">
			<path d="M 105 123 L 105 127 L 107 127 L 107 123 L 105 123 ZM 109 122 L 109 127 L 111 127 L 111 122 L 109 122 ZM 113 120 L 113 127 L 115 127 L 115 120 L 113 120 ZM 117 119 L 117 127 L 119 127 L 119 119 L 117 119 ZM 121 116 L 121 127 L 123 127 L 123 116 L 121 116 Z" fill="#ffffff"/>
		</g>
		<path opacity="0.2" d="M 860 123 L 860 120 L 862 120 L 862 123 L 860 123 ZM 860 116 L 841 116 L 841 127 L 860 127 L 860 125 L 864 125 L 864 118 L 860 118 L 860 116 ZM 858 118 L 858 125 L 843 125 L 843 118 L 858 118 ZM 844 119 L 844 124 L 849 124 L 849 119 L 844 119 Z" fill="#ffffff"/>
	</g>
</svg>