<svg style="background-color:#ffffff00" xmlns="http://www.w3.org/2000/svg" width="1251" height="967"><defs><linearGradient id="a" x1="1.485" y1="779.485" x2="797.485" y2="779.485" gradientUnits="userSpaceOnUse"><stop stop-color="#333" offset="0%"/><stop stop-color="#333" offset="99.444%"/></linearGradient><linearGradient id="b" x1="719.985" y1="675.985" x2="1598.985" y2="1045.985" gradientUnits="userSpaceOnUse"><stop stop-color="#333" offset="0%"/><stop stop-color="#666" offset="98.889%"/></linearGradient><linearGradient id="c" x1="49.479" y1="484.135" x2="64.067" y2="484.135" gradientUnits="userSpaceOnUse"><stop stop-color="#1e1e1e" offset="0%"/><stop stop-color="#303030" offset="34.444%"/><stop stop-color="#303030" offset="98.889%"/></linearGradient><linearGradient id="d" x1="1173.825" y1="458.104" x2="1236.451" y2="514.104" gradientUnits="userSpaceOnUse"><stop stop-color="#333" offset="0%"/><stop stop-color="#666" offset="98.889%"/></linearGradient></defs><g><rect y=".985" x=".985" width="1250" height="966" fill="url(#a)" rx="42" ry="42"/><rect y="3.985" x="3.985" width="1244" height="960" stroke="#5f6161" stroke-width="2" fill="url(#b)" rx="40" ry="40"/><g opacity=".502"><path d="M57.773 491.429c-4.028 0-7.294-3.265-7.294-7.294 0-4.028 3.266-7.294 7.294-7.294s7.294 3.266 7.294 7.294c0 4.029-3.266 7.294-7.294 7.294z" fill="#999"/><path d="M55.773 491.429c-4.028 0-7.294-3.265-7.294-7.294 0-4.028 3.266-7.294 7.294-7.294s7.294 3.266 7.294 7.294c0 4.029-3.266 7.294-7.294 7.294z"/></g><path d="M56.773 491.429c-4.028 0-7.294-3.265-7.294-7.294 0-4.028 3.266-7.294 7.294-7.294s7.294 3.266 7.294 7.294c0 4.029-3.266 7.294-7.294 7.294z" fill="url(#c)"/><rect opacity=".502" y="99.485" x="112.485" width="1025" height="769" stroke="#5f5f5f" fill="#333"/><g stroke-width="2"><path d="M1194.985 511.985c-15.464 0-28-12.536-28-28s12.536-28 28-28 28 12.536 28 28-12.536 28-28 28z" stroke="#5f6161" fill="url(#d)"/><rect y="474.383" x="1185.13" width="19.758" height="19.758" stroke="#666" rx="5" ry="5" fill="none"/></g></g><g><path d="M113.985 100.985h1023v20h-1023v-20z" fill="#1f1f1f"/><path d="M119.985 111.985v4h2v-4h-2zm4-1v5h2v-5h-2zm4-2v7h2v-7h-2zm4-1v8h2v-8h-2zm4-3v11h2v-11h-2z" fill="#fff" opacity=".2"/><path opacity=".2" d="M1129.985 111.985v-3h2v3h-2zm0-7h-19v11h19v-2h4v-7h-4v-2zm-2 2v7h-15v-7h15zm-14 1v5h5v-5h-5z" fill="#fff"/></g></svg>