<svg xmlns="http://www.w3.org/2000/svg" width="367" height="714"><defs><linearGradient id="a" x1="192" y1="6" x2="192" y2="802" gradientUnits="userSpaceOnUse"><stop stop-color="#333" offset="0%"/><stop stop-color="#333" offset="99.444%"/></linearGradient><linearGradient id="b" x1="255.5" y1="396" x2="-114.5" y2="1275" gradientUnits="userSpaceOnUse"><stop stop-color="#333" offset="0%"/><stop stop-color="#666" offset="98.889%"/></linearGradient><linearGradient id="c" x1="184.556" y1="66.265" x2="184.556" y2="77.926" gradientUnits="userSpaceOnUse"><stop stop-color="#333" offset="0%"/><stop stop-color="#666" offset="22.222%"/><stop stop-color="#666" offset="51.667%"/><stop stop-color="#666" offset="98.889%"/></linearGradient><linearGradient id="d" x1="185" y1="66.265" x2="185" y2="77.735" gradientUnits="userSpaceOnUse"><stop stop-color="#1e1e1e" offset="0%"/><stop stop-color="#303030" offset="34.444%"/><stop stop-color="#303030" offset="98.889%"/></linearGradient><linearGradient id="e" x1="112.85" y1="64.494" x2="112.85" y2="79.082" gradientUnits="userSpaceOnUse"><stop stop-color="#1e1e1e" offset="0%"/><stop stop-color="#303030" offset="34.444%"/><stop stop-color="#303030" offset="98.889%"/></linearGradient><linearGradient id="f" x1="219.597" y1="628.196" x2="148.741" y2="707.436" gradientUnits="userSpaceOnUse"><stop stop-color="#333" offset="0%"/><stop stop-color="#666" offset="98.889%"/></linearGradient><linearGradient id="g" x1="243" y1="394.5" x2="1182.333" y2="559.405" gradientUnits="userSpaceOnUse"><stop stop-color="#fff" offset="0%"/><stop stop-color="#fff" stop-opacity="0" offset="98.333%"/></linearGradient></defs><rect y="5.5" x="4.5" width="362" height="708" fill="url(#a)" rx="50" ry="50"/><rect y="7.5" x="7.5" width="356" height="702" stroke="#5f6161" stroke-width="2" fill="url(#b)" rx="47" ry="47"/><g opacity=".302"><rect y="67.029" x="153.5" width="63" height="11.47" fill="#999" rx="7" ry="7"/><rect y="65.5" x="153.5" width="63" height="11.471" rx="7" ry="7"/></g><rect y="66.265" x="153.5" width="63" height="11.471" fill="url(#c)" rx="7" ry="7"/><rect y="66.265" x="153.5" width="63" height="11.471" fill="url(#d)" rx="7" ry="7"/><g opacity=".502"><path d="M105.556 72.788c0-4.028 3.266-7.294 7.294-7.294s7.294 3.266 7.294 7.294-3.266 7.294-7.294 7.294-7.294-3.266-7.294-7.294z" fill="#999"/><path d="M105.556 70.788c0-4.028 3.266-7.294 7.294-7.294s7.294 3.266 7.294 7.294-3.266 7.294-7.294 7.294-7.294-3.266-7.294-7.294z"/></g><path d="M105.556 71.788c0-4.028 3.266-7.294 7.294-7.294s7.294 3.266 7.294 7.294-3.266 7.294-7.294 7.294-7.294-3.266-7.294-7.294z" fill="url(#e)"/><path d="M151.422 654.97c0-19.567 15.861-35.428 35.428-35.428 19.567 0 35.428 15.861 35.428 35.428 0 19.567-15.862 35.428-35.428 35.428-19.567 0-35.428-15.861-35.428-35.428z" stroke="#5f6161" stroke-width="2" fill="url(#f)"/><path d="M179.21 642.5h14.58c2.877 0 5.21 2.333 5.21 5.21v14.58c0 2.878-2.333 5.21-5.21 5.21h-14.58c-2.877 0-5.21-2.332-5.21-5.21v-14.58c0-2.877 2.333-5.21 5.21-5.21z" stroke="#666" stroke-width="2" fill="none"/><rect opacity=".502" y="121" x="25" width="321" height="481" stroke="#5f5f5f" fill="#333"/><path d="M3 76h2v36h-2c-1.657 0-3-1.343-3-3v-30c0-1.657 1.343-3 3-3z" fill="#666"/><path d="M3 141h2v29h-2c-1.657 0-3-1.343-3-3v-23c0-1.657 1.343-3 3-3z" fill="#666"/><path d="M3 214h2v29h-2c-1.657 0-3-1.343-3-3v-23c0-1.657 1.343-3 3-3z" fill="#666"/><path d="M317 3v2h-61v-2c0-1.657 1.343-3 3-3h55c1.657 0 3 1.343 3 3z" fill="#666"/><path opacity=".102" d="M162.31 6.5h145.38c31.652 0 57.31 25.658 57.31 57.31v495.38c0 31.652-202.69-205.554-202.69-552.69z" fill="url(#g)"/><path d="M26 121h319v20h-319v-20z" fill="#1f1f1f"/><path opacity=".2" d="M338.022 132v-3h1.994v3h-1.994zm0-8h-18.941v13h18.941v-3h3.988v-7h-3.988v-3zm-1.994 2v9h-14.953v-9h14.953zm-13.956 1v7h4.984v-7h-4.984z" fill="#fff"/><path d="M35.969 132v4h1.994v-4h-1.994zm3.987-1v5h1.994v-5h-1.994zm3.987-2v7h1.994v-7h-1.994zm3.988-1v8h1.994v-8h-1.994zm3.987-3v11h1.994v-11h-1.994z" fill="#fff" opacity=".2"/></svg>