<svg xmlns="http://www.w3.org/2000/svg" width="380" height="802"><defs><linearGradient id="a" x1="192.5" y1="5.5" x2="192.5" y2="801.5" gradientUnits="userSpaceOnUse"><stop stop-color="#333" offset="0%"/><stop stop-color="#333" offset="99.444%"/></linearGradient><linearGradient id="b" x1="255" y1="395.5" x2="-115" y2="1274.5" gradientUnits="userSpaceOnUse"><stop stop-color="#333" offset="0%"/><stop stop-color="#666" offset="98.889%"/></linearGradient><linearGradient id="c" x1="192.056" y1="69.765" x2="192.056" y2="81.426" gradientUnits="userSpaceOnUse"><stop stop-color="#333" offset="0%"/><stop stop-color="#666" offset="22.222%"/><stop stop-color="#666" offset="51.667%"/><stop stop-color="#666" offset="98.889%"/></linearGradient><linearGradient id="d" x1="192.5" y1="69.765" x2="192.5" y2="81.235" gradientUnits="userSpaceOnUse"><stop stop-color="#1e1e1e" offset="0%"/><stop stop-color="#303030" offset="34.444%"/><stop stop-color="#303030" offset="98.889%"/></linearGradient><linearGradient id="e" x1="192.85" y1="37.494" x2="192.85" y2="52.082" gradientUnits="userSpaceOnUse"><stop stop-color="#1e1e1e" offset="0%"/><stop stop-color="#303030" offset="34.444%"/><stop stop-color="#303030" offset="98.889%"/></linearGradient><linearGradient id="f" x1="225.597" y1="717.196" x2="154.741" y2="796.436" gradientUnits="userSpaceOnUse"><stop stop-color="#333" offset="0%"/><stop stop-color="#666" offset="98.889%"/></linearGradient><linearGradient id="g" x1="255" y1="395.5" x2="1194.333" y2="560.405" gradientUnits="userSpaceOnUse"><stop stop-color="#fff" offset="0%"/><stop stop-color="#fff" stop-opacity="0" offset="98.333%"/></linearGradient></defs><rect y="5.5" x="5" width="375" height="796" fill="url(#a)" rx="60" ry="60"/><rect y="7.5" x="7" width="370" height="790" stroke="#5f6161" stroke-width="2" fill="url(#b)" rx="55" ry="55"/><g opacity=".302"><rect y="70.529" x="161" width="63" height="11.47" fill="#999" rx="7" ry="7"/><rect y="69" x="161" width="63" height="11.471" rx="7" ry="7"/></g><rect y="69.765" x="161" width="63" height="11.471" fill="url(#c)" rx="7" ry="7"/><rect y="69.765" x="161" width="63" height="11.471" fill="url(#d)" rx="7" ry="7"/><g opacity=".502"><path d="M185.556 45.788c0-4.028 3.265-7.294 7.294-7.294 4.028 0 7.294 3.266 7.294 7.294s-3.266 7.294-7.294 7.294c-4.029 0-7.294-3.266-7.294-7.294z" fill="#999"/><path d="M185.556 43.788c0-4.028 3.265-7.294 7.294-7.294 4.028 0 7.294 3.266 7.294 7.294s-3.266 7.294-7.294 7.294c-4.029 0-7.294-3.266-7.294-7.294z"/></g><path d="M185.556 44.788c0-4.028 3.265-7.294 7.294-7.294 4.028 0 7.294 3.266 7.294 7.294s-3.266 7.294-7.294 7.294c-4.029 0-7.294-3.266-7.294-7.294z" fill="url(#e)"/><path d="M157.422 743.97c0-19.567 15.861-35.428 35.428-35.428 19.567 0 35.428 15.861 35.428 35.428 0 19.567-15.862 35.428-35.428 35.428-19.567 0-35.428-15.861-35.428-35.428z" stroke="#5f6161" stroke-width="2" fill="url(#f)"/><path d="M185.21 731.5h14.58c2.877 0 5.21 2.333 5.21 5.21v14.58c0 2.878-2.333 5.21-5.21 5.21h-14.58c-2.877 0-5.21-2.332-5.21-5.21v-14.58c0-2.877 2.333-5.21 5.21-5.21z" stroke="#666" stroke-width="2" fill="none"/><rect opacity=".502" y="121" x="31.5" width="321" height="569" stroke="#5f5f5f" fill="#333"/><path d="M3 114h2v36h-2c-1.657 0-3-1.343-3-3v-30c0-1.657 1.343-3 3-3z" fill="#666"/><path d="M3 189h2v29h-2c-1.657 0-3-1.343-3-3v-23c0-1.657 1.343-3 3-3z" fill="#666"/><path d="M3 256h2v29h-2c-1.657 0-3-1.343-3-3v-23c0-1.657 1.343-3 3-3z" fill="#666"/><path d="M318 3v2h-61v-2c0-1.657 1.343-3 3-3h55c1.657 0 3 1.343 3 3z" fill="#666"/><path opacity=".102" d="M174.31 7.5h145.38c31.652 0 57.31 25.658 57.31 57.31v495.38c0 31.652-202.69-205.554-202.69-552.69z" fill="url(#g)"/><rect y="121" x="32" width="320" height="20" fill="#1f1f1f"/><path opacity=".2" d="M343 132v-3h2v3h-2zm0-8h-19v13h19v-3h4v-7h-4v-3zm-2 2v9h-15v-9h15zm-14 1v7h5v-7h-5z" fill="#fff"/><path d="M40 132v4h2v-4h-2zm4-1v5h2v-5h-2zm4-2v7h2v-7h-2zm4-1v8h2v-8h-2zm4-3v11h2v-11h-2z" fill="#fff" opacity=".2"/></svg>